<svg xmlns="http://www.w3.org/2000/svg" viewBox="75.55 68.96 113.76 55.19">
  <g id="DIKU">
    <g id="D" fill="none" stroke="#000">
      <path d="m128.504 347.01-.054 24.07M126.107 368.826l14.526-.054" transform="translate(-48.125 -275.22)"
        stroke-width="4.857"></path>
      <path d="m126.316 349.433 14.35-.156" transform="translate(-48.125 -275.22)" stroke-width="4.854"></path>
      <path d="m143.048 351.705-.107 14.652" transform="translate(-48.125 -275.22)" stroke-width="4.858"></path>
    </g>
    <path
      d="M152.548 346.607v24.473M162.316 346.714v24.473M161.135 359.112h13.417M177.021 346.875l-.054 9.768M177.021 361.473l-.054 9.714M186.682 346.982v19.321M201.226 346.929l.161 19.428M189.15 368.772l9.876-.053"
      transform="translate(-48.125 -275.22)" fill="none" stroke="#000" stroke-width="4.858" id="IKU"></path>
  </g>
  <path
    d="M150.149 374.844h4.215v4.215h-4.215zM155.216 374.859h4.126v4.215h-4.126zM160.156 374.844h4.215v4.215h-4.215zM150.165 380.036h4.215v3.962h-4.215zM150.254 384.947h4.215v3.962h-4.215zM150.254 389.947h4.215v3.962h-4.215zM150.254 395.126h4.215v3.962h-4.215zM155.433 384.947h3.947v3.962h-3.947zM160.343 384.947h3.947v3.962h-3.947zM165.522 380.126h3.947v3.962h-3.947zM165.611 389.947h3.947v3.962h-3.947zM165.611 395.036h3.947v3.962h-3.947zM174.808 380.036h3.947v3.962h-3.947zM174.808 384.947h3.947v3.962h-3.947zM174.808 390.036h3.947v3.962h-3.947zM179.897 395.126h3.947v3.962h-3.947zM184.808 395.126h3.947v3.962h-3.947zM189.808 395.126h3.947v3.962h-3.947zM179.718 385.036h3.947v3.962h-3.947zM184.808 385.036h3.947v3.962h-3.947zM179.629 374.947h3.947v4.052h-3.947zM184.718 374.858h3.947v4.141h-3.947zM189.718 374.858h3.947v4.141h-3.947zM198.936 374.858h3.947v4.141h-3.947zM198.936 379.909h3.947v4.141h-3.947zM198.936 384.959h3.947v4.141h-3.947zM198.936 389.959h3.947v4.141h-3.947zM204.204 395.049h3.947v4.141h-3.947zM209.204 389.959h3.947v4.141h-3.947zM214.293 384.959h3.947v4.141h-3.947zM214.293 379.959h3.947v4.141h-3.947zM214.204 374.87h3.947v4.141h-3.947zM223.132 374.87h3.947v4.141h-3.947zM223.222 379.959h3.947v4.141h-3.947zM228.4 385.049h3.947v4.141H228.4zM228.4 390.049h3.947v4.141H228.4zM228.49 395.227h3.947v4.141h-3.947zM233.49 374.87h3.947v4.141h-3.947zM233.49 380.049h3.947v4.141h-3.947z"
    transform="translate(-48.125 -275.22)" id="revy"></path>
</svg>
