<svg xmlns="http://www.w3.org/2000/svg" viewBox="0 0 189.312 200">
  <g id="dancer">
    <path d="M59.959 375.72c-.823-2.906-3.286-.751-1.445-8.852 5.507.73 13.18 2.57 18.448 1.298 6.212-.701 14.145-3.22 17.019-9.403 1.773-4.395.21-12.184 3.493-16.038 3.229-4.695 5.532-10.004 9.569-14.11 3.633-4.133 7.557-8.035 10.99-12.324 3.01-3.463 6.48.145 4.46 3.637-2.61 10.309-11.677 17.437-14.38 27.722-1.993 6.185-3.96 12.411-4.697 18.893-.86 4.408-1.99 9.73-6.569 11.716-5.799 2.811-11.823 5.922-18.466 5.638-6.07.817-9.035-4.098-14.787-4.99-.89-.428-.522-1.382-3.635-3.187z" transform="translate(-48.125 -275.22)"/>
    <path d="M60.257 382.584c-.905.827-2.06 1.36-2.803 2.355-.966.73-2.282 1.39-2.421 2.74.124 1.224 1.788.36 2.596.569 1.478-.146 2.96-.243 4.424-.511 1.657-.136 3.306-.393 4.942-.693 1.221-.34 2.414-.958 3.715-.86.953-.315 2.651-.17 2.787-1.486-.173-.996-1.349-1.153-2.034-1.691-1.845-1.07-3.598-2.41-5.682-2.996-1.49-.296-2.637.93-3.829 1.594-.57.315-1.172.585-1.695.979zM96.669 383.778c3.536-1.484 7.14-1.093 10.9-1.248 2.028-.053 4.34-.667 6.362-.733.613.049 3.195 2.193 3.453 1.498-.551-.753-3.171-2.161-3.874-2.762-1.396-.763-2.769-1.608-4.321-2.02-1.294-.408-2.556-.91-3.8-1.44-1.21-.364-2.502-.058-3.589.522-1.037.451-2.127.826-3.077 1.446-1.14.96-1.726 2.37-2.648 3.51-.221.451-.114 1.407.594 1.227z" transform="translate(-48.125 -275.22)"/>
    <path d="M63.261 378.624c2.938 2.773 5.472 3.85 6.523 4.549 2.801 1.329 2.38 2.35 5.457 2.805 2.707.383 8.883.746 11.643.666 3.681.408 7.1-1.415 10.565-2.372 2.325-1.084 4.823-1.704 6.99-3.15 2.182-1.397 4.279-2.706 5.733-4.814 1.108-1.66.878-3.526 1.228-5.261.152.31.548-3.18.419-4.225-.543-4.376-.252-5.004-.576-7.66-.822-3.47-.034-10.945-2.426-13.914.681-2.326-.34.73-1.503 2.76-2.95 1.759-5.917 3.955-7.205 7.274-.425 2.55.752 5.927 1.337 8.3.545 2.106 1.24 3.125-.276 4.786-1.596 1.829-7.399 3.702-9.792 4.667-3.467 2.018-2.897 2.792-6.68 3.901-2.595.48-5.34 1.47-7.913.447-2.348 0-4.732-.18-7.059.199-4.453 1.717-6.227-.413-9.525-1.808M98.938 283.744c2.953 2.899 7.215 2.911 11.09 2.958 2.314.374 3.287 2.893 3.672 4.923.476 2.342 2.409 3.898 3.896 5.602 2.029 2.53 5.012 4.621 8.37 4.585 1.76.126 3.814 2.78 5.268 1.497-.255-2.266-2.153-3.927-2.99-6-2.094-3.468-5.207-6.137-8.49-8.438-2.316-1.667-4.177-3.86-6.532-5.47-1.92-1.452-4.037-2.82-6.465-3.175-3.26.35-5.175-.277-7.365 1.22-.645.546-.816 1.366-.454 2.298z" transform="translate(-48.125 -275.22)"/>
    <path d="M112.741 331.613c1.513-1.868 3.498-3.377 4.45-5.643 1.943-3.916 5.506-7.17 6.003-11.718.942-4.113.254-8.352.563-12.518-.53-2.475-.55-4.628-2.832-7.411-.942-1.148-5.357-3.485-4.596-5.008.117.847 2.367-.413 5.327 2.461 1.91 1.233 3.077 2.338 5.073 3.546 2.16 1.993 4.54 5.572 5.609 8.345.09 3.23.99 5.325-.475 8.447-1.143 2.64-1.66 5.603-3.762 7.727-1.37 2.202-4.248 5.466-6.376 6.9-1.79 1.467-1.965 3.426-3.449 5.234-1.538 1.73-3.09 2.107-4.63 3.8-1.166 1.909-2.432 3.788-3.323 5.843-.157 1.223-1.57 2.033-1.67.263 1.613-9.765-1.59-1.612 4.089-10.267zM63.839 416.011c1.429-1.093-3.055-1.202-3.687-2.435-2.795-1.828-4.173-3.418-6.305-5.954-1.31-1.338-5.298.504-5.722-1.017 2.563-2.294 5.93-3.83 9.093-4.51 2.74-.35 5.553-.369 8.24-.99 5.08-2.323 10.458-5.066 16.221-4.333 2.63.883 3.794 6.172 7.156 3.897 2.55-1.54 5.243-3.113 8.315-3.123 2.615-.121 5.237.529 7.557 1.721 2.14-.082 6.5.567 5.25 3.647-2.023 3.292-5.903 4.547-8.93 6.671-4.248 2.444-8.553 5.76-13.688 5.628-5.104-.315-10.16-2.894-15.291-1.304-2.773.54-5.37 1.936-8.21 2.102z" transform="translate(-48.125 -275.22)"/>
    <path d="M108.607 402.282c.935-1.909-.07-3.973-.23-5.932-.565-1.933-2.205-3.302-2.88-5.184-.594-1.314-4.097-2.22-4.152-3.657.978-1.18 3.795.37 5.047.394 2.204.33 4.439-.647 6.664-.843 1.528.073 2.17.277 3.668 0 2.435 0 5.805.214 8.213.783 1.44.379 2.386 1.654 2.714 3.054.27 1.294 1.19 2.229 2.065 3.146.972.904 1.024 2.365.252 3.408-1.144 1.83-3.206 2.728-4.826 4.056-2.949 2.094-6.175 4.185-9.875 4.478-1.814.063-3.547-.71-4.954-1.802-.756-.393-1.723-.916-1.706-1.902zM84.432 474.509c-1.567.063-5.07-.457-6.439-1.357-1.826-.566.088-3.08 1.945-3.513 3.43-1.474 6.941-3.436 9.587-6.23.846-1.181 2.68-1.396 4.184-.791 2.851 1.168 3.554 5.397 1.408 7.54-1.85 2.118-4.603 3.028-6.887 4.556-1.187.575-2.702.582-3.798-.204zM96.669 451.23c-.369 1.183-2.955 2.976-3.975 3.928-1.344.89-2.762-.7-3.193-1.894-.993-2.48-2.797-4.928-2.278-7.74.337-1.947-.342-5.855 1.11-7.093 1.799-2.223 4.823-2.582 6.113-5.09.91-1.106 2.692-11.589 9.903-12.396 1.092 1.045.401 9.696-3.95 15.501-.432 3.116-.968.345-2.765 4.358-.71 1.59-.502 8.746-.965 10.425z" transform="translate(-48.125 -275.22)"/>
    <path d="M80.64 473.643c4.172-1.832 9.086-1.993 11.865-5.814-2.555-4.652-.9.418-8.567-13.837-2.557-5.224-4.56-10.93-5.562-16.538-1.059-5.307.661-11.523-1.237-16.632-3.482-3.469-7.303-.452-10.889-3.978-5.347-2.838-10.559-5.642-10.868-7.778 4.752-.446 11.264-4.271 15.64-6.347 4.601-4.245 4.33 8.333 8.935 8.305 4.597 1.04 9.497.71 14.131 0 2.217-4.9 2.02-4.035 5.37-7.15 4.046-1.786 13.814-5.489 15.163-10.103-3.831-11.118 4.704-4.467 7.823-2.207 3.987 1.666 9.79 3.624 11.388 7.427-7.683 13.015-11.068 5.645-14.835 10.306-4.708 2.151 5.635 12.055-6.108 14.849-3.437 4.751-8.902 9.945-13.022 13.99-1.402-4.132 1.49-9.091 1.462-13.535 10.961-14.405 1.96-10.713-7.235-7.695-2.723 3.322-.075 11.133-2.615 14.747-3.112 3.89-4.652 5.568-3.515 10.774 1.555 5.432 3.823 10.557 6.67 15.448 3.117 4.288 3.074 8.125 3.915 13.495 1.529 4.435-7.667 2.385-11.811 3.66-1.957.602-4.358-.326-6.099-1.407zM106.386 322.538c-3.435 3.38-8.229 4.723-11.92 7.733-3.257 2.06-3.51 3.344-6.007 8.304-2.713 1.298-4.752 7.282-7.995 7.012-1.698-3.137-4.56-6.263-4.66-9.888-.41-2.812 3.428-9.97-.846-11.075-2.388-1.99-4.188-5.723-7.923-4.848-3.288.698-3.055 8.827-3.022 11.653-.946 4.252-1.889 10.523-3.073 14.733 1.032-3.452-.68-13.372-.534-16.904-.678-3.955-3.517-5.754-6.145-8.382-2.602-2-5.763-5.875-4.498-9.243 1.83.049 2.35 4.42 4.554 5.347 2.736 3.303 5.932-1.105 8.683-2.742 3.889-1.258 9.318.553 11.869-3.184 1.714-3.469-2.086-6.85 1.434-11.1 1.1-1.325 5.102-3.522 4.336-3.163-1.095 3.596-3.615 7.926-2.408 11.598.127 3.326 3 6.8 6.58 6.084 3.304-1.298 8.195-.185 7.962 4.168.292 2.946.725 4.847 5.08 5.336 2.11-7.28 8.456-3.998 11.91-5.101.526-.335-1.944 2.727-3.377 3.662z" transform="translate(-48.125 -275.22)"/>
    <path d="M94.405 299.187c1.507.234 3.062.794 4.082 1.976.912 1.215.986 2.815.874 4.273.039 1.01.073 2.182-.718 2.94-.81.927-1.667 1.813-2.468 2.745-.674.595-1.693.388-2.377-.078-1.297-.833-1.837-2.346-2.685-3.563-.594-.869-.959-1.859-1.256-2.86-.228-.757-.525-1.488-.84-2.21-.213-.66-.22-1.19.299-1.648 1.136-1.497 3.502-1.55 5.09-1.576z" transform="translate(-48.125 -275.22)"/>
    <path d="M77.262 326.758c-.956-1.316 2.773 0 3.072.672 1.914 1.819 3.21 4.189 5.131 5.992 1.795 1.439 4.317 1.254 6.372.549 2.193-1.5 2.315-4.416 2.375-6.82.222-2.454.435-4.912.554-7.374.355-2.52 1.397-6.003 2.093-7.286 3.87-7.124.735-2.784 1.347-4.087.199-2.07-1.65-3.44-3.046-4.636-1.337-1.315-2.698-3.02-4.741-3.09-1.769-.068-2.43 1.89-2.996 3.225-1.085 3.28 1.029 6.476.819 9.762-.492 3.201-3.668 5.291-3.875 8.597.368 1.766-1.282 2.8-2.74 3.265-2.319-1.524-4.639.107-4.365 1.231z" transform="translate(-48.125 -275.22)"/>
    <path d="M61.012 316.84c-2.089-2.863-4.545-8.686-5.693-15.057-.02-2.5 1.86-4.51 2.039-6.979.789-2.862 1.951-5.626 2.374-8.582.614-2.517-.316-5.6.916-7.908 1.123-1.733 4.23-2.46 6.163-3.095 2.555 0 11.187.933 12.907 2.509 1.886-.165-4.195.935-6.063 1.515-2.334 1.387-4.353 3.224-6.108 5.282-2.29 2.33-4.038 5.209-4.776 8.409-.76 2.211.792 3.22.565 5.55-.466 2.712-1.059 6.783-.378 9.475.38 1.227-.01 10.46-1.946 8.88z" transform="translate(-48.125 -275.22)" fill="#1f0000"/>
    <path d="M62.49 285.816c-.253-.59-1.341-.864-.605-.573-1.361.048-1.696-4.298-1.906-4.987 1.14-1.854 3.473.881 5.458.527 2.007.092 4.046.048 5.782-1.1 1.862-.933 4.159-1.72 6.243-2.177 1.301-.843 3.865.17 1.558.827-2.446.695-3.91 2.901-4.638 4.293-2.608 4.988-6.243 3.502-9.771 3.17-.707 0-1.414.05-2.121 0zM95.027 284.364c2.119.767 9.755 5.724 12.06 6.071.988.093 4.125.56 5.107.2.763-.462 1.9-.442 1.407-.735-1.353-1.021.301-2.729-1.466-3.106-1.083-.408-7.07-1.733-8.12-.986-.385.301-8.948-1.914-8.988-1.443z" transform="translate(-48.125 -275.22)"/>
  </g>
  <g id="DIKU">
    <g id="D" fill="none" stroke="#000">
      <path d="m128.504 347.01-.054 24.07M126.107 368.826l14.526-.054" transform="translate(-48.125 -275.22)" stroke-width="4.857"/>
      <path d="m126.316 349.433 14.35-.156" transform="translate(-48.125 -275.22)" stroke-width="4.854"/>
      <path d="m143.048 351.705-.107 14.652" transform="translate(-48.125 -275.22)" stroke-width="4.858"/>
    </g>
    <path d="M152.548 346.607v24.473M162.316 346.714v24.473M161.135 359.112h13.417M177.021 346.875l-.054 9.768M177.021 361.473l-.054 9.714M186.682 346.982v19.321M201.226 346.929l.161 19.428M189.15 368.772l9.876-.053" transform="translate(-48.125 -275.22)" fill="none" stroke="#000" stroke-width="4.858" id="IKU"/>
  </g>
  <path d="M150.149 374.844h4.215v4.215h-4.215zM155.216 374.859h4.126v4.215h-4.126zM160.156 374.844h4.215v4.215h-4.215zM150.165 380.036h4.215v3.962h-4.215zM150.254 384.947h4.215v3.962h-4.215zM150.254 389.947h4.215v3.962h-4.215zM150.254 395.126h4.215v3.962h-4.215zM155.433 384.947h3.947v3.962h-3.947zM160.343 384.947h3.947v3.962h-3.947zM165.522 380.126h3.947v3.962h-3.947zM165.611 389.947h3.947v3.962h-3.947zM165.611 395.036h3.947v3.962h-3.947zM174.808 380.036h3.947v3.962h-3.947zM174.808 384.947h3.947v3.962h-3.947zM174.808 390.036h3.947v3.962h-3.947zM179.897 395.126h3.947v3.962h-3.947zM184.808 395.126h3.947v3.962h-3.947zM189.808 395.126h3.947v3.962h-3.947zM179.718 385.036h3.947v3.962h-3.947zM184.808 385.036h3.947v3.962h-3.947zM179.629 374.947h3.947v4.052h-3.947zM184.718 374.858h3.947v4.141h-3.947zM189.718 374.858h3.947v4.141h-3.947zM198.936 374.858h3.947v4.141h-3.947zM198.936 379.909h3.947v4.141h-3.947zM198.936 384.959h3.947v4.141h-3.947zM198.936 389.959h3.947v4.141h-3.947zM204.204 395.049h3.947v4.141h-3.947zM209.204 389.959h3.947v4.141h-3.947zM214.293 384.959h3.947v4.141h-3.947zM214.293 379.959h3.947v4.141h-3.947zM214.204 374.87h3.947v4.141h-3.947zM223.132 374.87h3.947v4.141h-3.947zM223.222 379.959h3.947v4.141h-3.947zM228.4 385.049h3.947v4.141H228.4zM228.4 390.049h3.947v4.141H228.4zM228.49 395.227h3.947v4.141h-3.947zM233.49 374.87h3.947v4.141h-3.947zM233.49 380.049h3.947v4.141h-3.947z" transform="translate(-48.125 -275.22)" id="revy"/>
</svg>
